<svg width="222" height="53" viewBox="0 0 222 53" fill="none" xmlns="http://www.w3.org/2000/svg">
<g clip-path="url(#clip0)">
<path d="M35.0219 28.0933C34.9515 23.7848 36.8067 20.4309 40.5834 18.0302C38.4534 14.9234 35.3122 13.1772 31.1585 12.7868C29.681 12.6476 27.792 12.9979 25.4941 13.8466C23.0223 14.7659 21.6308 15.2228 21.3222 15.2228C20.6697 15.2228 19.4169 14.8365 17.5603 14.0577C15.7079 13.281 14.1275 12.8927 12.8225 12.8927C10.6255 12.9287 8.58152 13.5377 6.69384 14.7197C4.80549 15.9031 3.29548 17.5196 2.16315 19.5652C0.71947 22.1085 0 25.1453 0 28.6751C0 31.8525 0.530634 35.0292 1.59461 38.2086C2.59023 41.2455 3.86266 43.911 5.40584 46.2037C6.77777 48.2874 7.98388 49.8054 9.01063 50.76C10.4888 52.2421 11.9975 52.9496 13.5447 52.8776C14.5396 52.8409 15.8432 52.4709 17.4575 51.7628C18.9668 51.0954 20.4788 50.7593 21.9902 50.7593C23.3973 50.7593 24.8552 51.0934 26.3679 51.7628C28.0492 52.4709 29.4238 52.8233 30.4878 52.8233C32.0675 52.754 33.543 52.0649 34.9183 50.76C35.3968 50.3343 35.9214 49.7525 36.4872 49.0111C37.1404 48.1475 37.7677 47.2645 38.3681 46.3633C38.8684 45.5861 39.3409 44.7912 39.7847 43.9802C40.2608 43.1069 40.6821 42.2047 41.0463 41.2788C41.2162 40.8904 41.3705 40.4939 41.5093 40.0879C41.646 39.6819 41.7834 39.2685 41.9208 38.8441C40.6504 38.2806 39.4998 37.4829 38.4703 36.4584C36.207 34.2023 35.0564 31.4119 35.0219 28.0933ZM72.3673 37.5345H72.1175L61.6585 13.5587H53.4451V52.2421H60.6033V27.1889H60.9356L69.6762 47.0829H74.6962L83.4091 27.1889H83.7427V52.2421H90.9835V13.5587H82.8263L72.3673 37.5345ZM28.5311 8.49798C30.3517 6.20252 31.2621 3.73121 31.2621 1.08271V0.553819C31.2621 0.37594 31.2445 0.200097 31.2106 0.0235748C29.9395 0.0941836 28.5927 0.500863 27.1666 1.2409C25.7425 1.98365 24.5669 2.92057 23.6383 4.04827C21.7851 6.27448 20.8572 8.65617 20.8572 11.1988V11.7005C20.8572 11.8607 20.8748 12.0277 20.9086 12.2056C23.7594 12.4874 26.3002 11.251 28.5311 8.49798ZM174.645 13.5587H182.69V52.2428H174.645V13.5587ZM206.99 19.7078C211.762 19.7078 214.285 23.3923 214.285 27.36H222V26.5378C222 19.0567 216.312 12.8228 206.934 12.8228C196.89 12.8228 190.898 19.4539 190.898 30.7621V35.127C190.898 46.4318 196.834 52.9808 206.905 52.9808C216.533 52.9808 222 46.6586 222 39.6317V38.7817H214.285C214.285 42.7792 211.817 46.0944 207.047 46.0944C202.162 46.0944 199.054 42.6081 199.054 35.1535V30.792C199.054 23.3632 202.191 19.7078 206.99 19.7078ZM121.755 37.9866C121.755 43.1743 118.731 46.0354 114.292 46.0354C109.825 46.0354 106.802 43.2015 106.802 37.9866V13.5587H98.8103V39.1204C98.8103 47.3694 104.636 52.9801 114.291 52.9801C123.919 52.9801 129.772 47.3694 129.772 39.1204V13.5587H121.755V37.9866ZM156.391 29.7125L150.649 28.4103C147.265 27.6995 145.489 26.1984 145.489 23.9586C145.489 20.9842 147.901 19.1131 151.788 19.1131C156.171 19.1131 158.362 21.6353 158.556 24.3564H166.047C165.964 17.5257 160.277 12.7651 151.814 12.7651C143.797 12.7651 137.471 16.9887 137.471 24.5832C137.471 31.158 141.911 34.2165 147.237 35.3816L152.924 36.7123C156.753 37.5908 158.695 38.8672 158.695 41.5008C158.695 44.5071 156.308 46.5479 151.843 46.5479C147.043 46.5479 144.517 43.9965 144.297 41.1335H136.583C136.696 46.6036 140.302 52.9801 151.455 52.9801C160.832 52.9801 166.632 48.3043 166.632 40.7064C166.629 33.6781 161.94 30.9292 156.391 29.7125Z" fill="#231F20"/>
</g>
<defs>
<clipPath id="clip0">
<rect width="222" height="53" fill="white"/>
</clipPath>
</defs>
</svg>
