<svg width="208" height="208" viewBox="0 0 208 208" fill="none" xmlns="http://www.w3.org/2000/svg">
<g filter="url(#filter0_d)">
<path d="M97.9405 200C141.563 200 176.927 197.837 176.927 195.169C176.927 192.501 141.563 190.338 97.9405 190.338C54.3177 190.338 18.9543 192.501 18.9543 195.169C18.9543 197.837 54.3177 200 97.9405 200Z" fill="#F2F2F2"/>
<path d="M144.088 46.4167H143.19V17.0162C143.19 12.5032 141.691 8.1751 139.023 4.98394C136.355 1.79278 132.737 4.98266e-06 128.963 0H76.8849C73.1117 -8.54164e-06 69.493 1.79275 66.825 4.9839C64.1569 8.17505 62.658 12.5032 62.658 17.0162V178.309C62.658 182.822 64.1569 187.151 66.8249 190.342C69.493 193.533 73.1116 195.326 76.8849 195.326H128.963C132.737 195.326 136.355 193.533 139.023 190.342C141.691 187.151 143.19 182.823 143.19 178.31V67.3444H144.088L144.088 46.4167Z" fill="#3F3D56"/>
<path d="M140.162 17.135V178.191C140.162 181.561 139.043 184.794 137.05 187.177C135.058 189.56 132.355 190.899 129.537 190.899H77.2088C74.3909 190.899 71.6885 189.56 69.6959 187.177C67.7033 184.794 66.5839 181.561 66.5839 178.191V17.135C66.5839 13.7646 67.7033 10.5323 69.6959 8.14906C71.6885 5.76585 74.3909 4.42694 77.2088 4.42688H83.5569C83.245 5.34368 83.1262 6.33811 83.211 7.32271C83.2958 8.30731 83.5816 9.25189 84.0432 10.0734C84.5049 10.8949 85.1283 11.5681 85.8585 12.0338C86.5887 12.4995 87.4035 12.7434 88.231 12.7442H118.066C118.894 12.7434 119.709 12.4995 120.439 12.0338C121.169 11.568 121.792 10.8948 122.254 10.0734C122.716 9.25188 123.001 8.3073 123.086 7.3227C123.171 6.33811 123.052 5.34368 122.74 4.42688H129.537C132.355 4.42694 135.058 5.76585 137.05 8.14906C139.043 10.5323 140.162 13.7646 140.162 17.135Z" fill="white"/>
<path d="M123.305 86.5816C122.957 86.7989 122.603 87.0047 122.243 87.1988C121.915 87.376 121.583 87.5424 121.245 87.698C121.121 87.7544 120.996 87.8108 120.87 87.8671C119.876 88.2981 118.856 88.6346 117.818 88.8736C117.304 88.9943 116.784 89.0892 116.256 89.1581C115.821 89.2171 115.381 89.2592 114.937 89.2842C114.621 89.303 114.304 89.311 113.985 89.311C112.724 89.3117 111.464 89.1706 110.225 88.8897C109.901 88.8199 109.585 88.7367 109.269 88.6454C107.738 88.2068 106.257 87.5527 104.855 86.697C104.729 86.6218 104.604 86.5413 104.478 86.4635C104.292 86.3454 104.11 86.2219 103.928 86.0931C104.016 85.9482 104.11 85.8059 104.206 85.6664C105.256 84.11 106.569 82.8358 108.058 81.9267C109.547 81.0176 111.18 80.4941 112.85 80.3903C114.52 80.2865 116.189 80.6047 117.749 81.3241C119.309 82.0436 120.725 83.1482 121.904 84.566C122.314 85.0572 122.693 85.5828 123.04 86.1387C123.132 86.2836 123.219 86.4313 123.305 86.5816Z" fill="#FFED26"/>
<path d="M114.433 74.7921C119.875 74.7921 124.286 69.5159 124.286 63.0074C124.286 56.4988 119.875 51.2226 114.433 51.2226C108.992 51.2226 104.58 56.4988 104.58 63.0074C104.58 69.5159 108.992 74.7921 114.433 74.7921Z" fill="#2F2E41"/>
<path d="M117.054 74.8088C120.608 72.4852 121.914 67.1559 119.971 62.9054C118.028 58.6549 113.573 57.0927 110.019 59.4163C106.465 61.7398 105.159 67.0691 107.102 71.3196C109.044 75.5702 113.5 77.1323 117.054 74.8088Z" fill="#A0616A"/>
<path d="M121.242 61.5955C119.566 62.9769 117.577 63.7122 115.542 63.7024C116.268 64.3045 117.095 64.7112 117.965 64.8945C115.259 65.5887 112.462 65.6075 109.75 64.9497C109.147 64.8341 108.565 64.5951 108.03 64.2432C107.763 64.0651 107.531 63.8219 107.348 63.5294C107.165 63.2368 107.036 62.9015 106.968 62.5453C106.788 61.3137 107.59 60.1949 108.424 59.4408C109.701 58.3039 111.173 57.5207 112.733 57.1476C114.294 56.7746 115.905 56.8212 117.449 57.284C118.457 57.5956 119.466 58.1222 120.121 59.0905C120.776 60.0587 120.97 61.5515 120.346 62.5486L121.242 61.5955Z" fill="#2F2E41"/>
<path d="M113.985 41.0015C109.581 41.0007 105.297 42.7223 101.787 45.9039C98.2767 49.0855 95.7324 53.5526 94.5419 58.6243C93.3513 63.6961 93.5798 69.0943 95.1926 73.9963C96.8054 78.8983 99.7139 83.0351 103.475 85.7764L103.605 85.8676C103.713 85.9455 103.821 86.0206 103.928 86.0931C104.11 86.2219 104.292 86.3453 104.478 86.4634C104.604 86.5413 104.729 86.6218 104.855 86.6969C106.257 87.5527 107.738 88.2067 109.269 88.6454C109.585 88.7367 109.902 88.8199 110.225 88.8896C111.465 89.1706 112.724 89.3116 113.985 89.311C114.304 89.311 114.621 89.303 114.937 89.2842C115.381 89.26 115.821 89.218 116.256 89.158C116.784 89.0883 117.304 88.9934 117.818 88.8735C118.856 88.6346 119.876 88.2981 120.87 87.8671C120.996 87.8107 121.121 87.7544 121.245 87.698C121.583 87.5423 121.916 87.3759 122.243 87.1988C122.602 87.0056 122.956 86.7998 123.305 86.5815C126.798 84.3934 129.685 81.0399 131.616 76.9277C131.625 76.9062 131.636 76.8847 131.645 76.8633C132.675 74.6521 133.406 72.2598 133.811 69.7752C134.378 66.2774 134.292 62.6728 133.559 59.2194C132.825 55.7661 131.463 52.5494 129.568 49.7997C127.674 47.05 125.294 44.8354 122.6 43.3143C119.906 41.7933 116.964 41.0035 113.986 41.0015H113.985ZM131.277 76.5492C131.259 76.5868 131.244 76.6244 131.226 76.6593C129.333 80.7108 126.486 84.0073 123.04 86.1387C122.696 86.3534 122.347 86.5547 121.992 86.7426C121.698 86.9009 121.397 87.0512 121.094 87.1908C120.966 87.2498 120.836 87.3088 120.706 87.3625C119.848 87.7375 118.968 88.0389 118.074 88.2643C117.411 88.4332 116.74 88.5595 116.066 88.6427C115.65 88.6964 115.229 88.734 114.804 88.7528C114.533 88.7662 114.259 88.7742 113.985 88.7742C112.764 88.776 111.546 88.6403 110.346 88.369C109.616 88.208 108.894 87.9965 108.185 87.7356C107.104 87.3362 106.054 86.8271 105.046 86.2138C104.929 86.1414 104.812 86.0689 104.698 85.9938C104.534 85.8891 104.368 85.7817 104.206 85.6663C104.085 85.5858 103.964 85.4999 103.845 85.414C103.776 85.3657 103.706 85.3147 103.636 85.2638C100.339 82.8416 97.7085 79.3149 96.0715 75.121C94.4345 70.9271 93.863 66.2507 94.4279 61.6719C94.9928 57.0931 96.6692 52.8133 99.2492 49.3637C101.829 45.9141 105.199 43.4463 108.941 42.2666C112.683 41.0868 116.632 41.247 120.299 42.7273C123.965 44.2076 127.187 46.9428 129.566 50.5936C131.945 54.2444 133.375 58.6501 133.679 63.2642C133.983 67.8783 133.148 72.4977 131.277 76.5492H131.277Z" fill="#3F3D56"/>
<path d="M109.444 51.3852C109.338 50.0518 107.972 49.231 106.904 49.6337C105.836 50.0365 105.135 51.3227 104.923 52.6378C104.821 53.1917 104.811 53.7642 104.895 54.3225C104.978 54.8808 105.153 55.4139 105.409 55.8913C105.949 56.8205 106.941 57.4004 107.866 57.1645C108.922 56.8952 109.654 55.6617 109.863 54.3945C110.073 53.1273 109.865 51.8209 109.657 50.5533L109.444 51.3852Z" fill="#2F2E41"/>
<path d="M124.474 53.29C124.368 51.9566 123.002 51.1358 121.934 51.5385C120.866 51.9413 120.165 53.2274 119.953 54.5426C119.851 55.0964 119.842 55.6689 119.925 56.2272C120.009 56.7855 120.183 57.3187 120.439 57.7961C120.979 58.7253 121.971 59.3052 122.896 59.0693C123.953 58.8 124.684 57.5665 124.894 56.2993C125.103 55.0321 124.895 53.7256 124.688 52.458L124.474 53.29Z" fill="#2F2E41"/>
<path d="M79.0781 74.8097C78.9384 74.8095 78.8003 74.7745 78.6725 74.7068C78.5447 74.6391 78.4302 74.5403 78.3362 74.4167L67.2013 59.888C67.075 59.7235 66.9215 59.5922 66.7505 59.5022C66.5796 59.4123 66.3949 59.3657 66.2081 59.3654H7.36797C6.47504 59.3642 5.61896 58.9394 4.98756 58.1842C4.35616 57.429 4.001 56.4051 4 55.3371V29.9579C4.001 28.8899 4.35616 27.8659 4.98756 27.1107C5.61896 26.3556 6.47504 25.9308 7.36797 25.9296H83.5998C84.4927 25.9308 85.3488 26.3556 85.9802 27.1107C86.6116 27.8659 86.9668 28.8898 86.9678 29.9579V55.3371C86.9668 56.4051 86.6116 57.4291 85.9802 58.1842C85.3488 58.9394 84.4927 59.3642 83.5998 59.3654H81.4386C81.0814 59.3659 80.7389 59.5359 80.4863 59.838C80.2337 60.1401 80.0916 60.5498 80.0912 60.9771V73.6001C80.0921 73.8438 80.0309 74.0821 79.9159 74.2832C79.8009 74.4843 79.6374 74.6389 79.4472 74.7262C79.3296 74.7812 79.2044 74.8096 79.0781 74.8097Z" fill="white"/>
<path d="M79.0781 74.8097C78.9384 74.8095 78.8003 74.7745 78.6725 74.7068C78.5447 74.6391 78.4302 74.5403 78.3362 74.4167L67.2013 59.888C67.075 59.7235 66.9215 59.5922 66.7505 59.5022C66.5796 59.4123 66.3949 59.3657 66.2081 59.3654H7.36797C6.47504 59.3642 5.61896 58.9394 4.98756 58.1842C4.35616 57.429 4.001 56.4051 4 55.3371V29.9579C4.001 28.8899 4.35616 27.8659 4.98756 27.1107C5.61896 26.3556 6.47504 25.9308 7.36797 25.9296H83.5998C84.4927 25.9308 85.3488 26.3556 85.9802 27.1107C86.6116 27.8659 86.9668 28.8898 86.9678 29.9579V55.3371C86.9668 56.4051 86.6116 57.4291 85.9802 58.1842C85.3488 58.9394 84.4927 59.3642 83.5998 59.3654H81.4386C81.0814 59.3659 80.7389 59.5359 80.4863 59.838C80.2337 60.1401 80.0916 60.5498 80.0912 60.9771V73.6001C80.0921 73.8438 80.0309 74.0821 79.9159 74.2832C79.8009 74.4843 79.6374 74.6389 79.4472 74.7262C79.3296 74.7812 79.2044 74.8096 79.0781 74.8097ZM7.36797 26.4663C6.59402 26.4674 5.85202 26.8356 5.30476 27.4901C4.75749 28.1447 4.44966 29.0322 4.44879 29.9579V55.3371C4.44966 56.2628 4.7575 57.1503 5.30476 57.8049C5.85203 58.4594 6.59402 58.8276 7.36797 58.8286H66.2081C66.4571 58.829 66.7033 58.8911 66.9312 59.011C67.1591 59.1309 67.3637 59.306 67.5321 59.5253L78.6669 74.0539C78.7434 74.1537 78.8433 74.2235 78.9535 74.2542C79.0636 74.2849 79.179 74.2751 79.2844 74.226C79.3899 74.177 79.4805 74.091 79.5443 73.9793C79.6082 73.8676 79.6424 73.7354 79.6424 73.6001V60.9771C79.6429 60.4075 79.8323 59.8614 80.1691 59.4586C80.5058 59.0558 80.9624 58.8293 81.4386 58.8286H83.5998C84.3737 58.8276 85.1157 58.4594 85.663 57.8049C86.2103 57.1503 86.5181 56.2628 86.519 55.3371V29.9579C86.5181 29.0322 86.2103 28.1447 85.663 27.4901C85.1158 26.8356 84.3737 26.4674 83.5998 26.4663H7.36797Z" fill="#3F3D56"/>
<path d="M12.2612 37.1251C13.8888 37.1251 15.2083 35.547 15.2083 33.6002C15.2083 31.6535 13.8888 30.0753 12.2612 30.0753C10.6336 30.0753 9.31409 31.6535 9.31409 33.6002C9.31409 35.547 10.6336 37.1251 12.2612 37.1251Z" fill="#FFED26"/>
<path d="M80.1616 53.1047H10.8063C10.5998 53.105 10.3952 53.0566 10.2043 52.9623C10.0133 52.8679 9.83985 52.7295 9.6937 52.5549C9.54755 52.3803 9.4316 52.173 9.35249 51.9447C9.27338 51.7165 9.23267 51.4719 9.23267 51.2248C9.23267 50.9777 9.27338 50.7331 9.35249 50.5049C9.4316 50.2766 9.54755 50.0693 9.6937 49.8947C9.83985 49.7201 10.0133 49.5817 10.2043 49.4873C10.3952 49.393 10.5998 49.3446 10.8063 49.3448H80.1616C80.5781 49.3454 80.9774 49.5438 81.2718 49.8963C81.5662 50.2488 81.7315 50.7266 81.7315 51.2248C81.7315 51.723 81.5662 52.2008 81.2718 52.5533C80.9774 52.9058 80.5781 53.1041 80.1616 53.1047Z" fill="#E6E6E6"/>
<path d="M57.5671 45.1149H10.8063C10.5998 45.1152 10.3952 45.0668 10.2043 44.9725C10.0133 44.8781 9.83985 44.7397 9.6937 44.5651C9.54755 44.3905 9.4316 44.1832 9.35249 43.9549C9.27338 43.7267 9.23267 43.4821 9.23267 43.235C9.23267 42.9879 9.27338 42.7433 9.35249 42.5151C9.4316 42.2868 9.54755 42.0795 9.6937 41.9049C9.83985 41.7303 10.0133 41.5918 10.2043 41.4975C10.3952 41.4032 10.5998 41.3547 10.8063 41.355H57.5671C57.984 41.355 58.3838 41.5531 58.6785 41.9057C58.9733 42.2582 59.1389 42.7364 59.1389 43.235C59.1389 43.7336 58.9733 44.2118 58.6785 44.5643C58.3838 44.9169 57.984 45.1149 57.5671 45.1149Z" fill="#E6E6E6"/>
<path d="M128.553 160.878C128.363 160.791 128.199 160.636 128.084 160.435C127.969 160.234 127.908 159.996 127.909 159.752V147.129C127.908 146.702 127.766 146.292 127.514 145.99C127.261 145.688 126.919 145.518 126.561 145.517H124.4C123.507 145.516 122.651 145.091 122.02 144.336C121.388 143.581 121.033 142.557 121.032 141.489V116.11C121.033 115.042 121.388 114.018 122.02 113.263C122.651 112.508 123.507 112.083 124.4 112.082H200.632C201.525 112.083 202.381 112.508 203.012 113.263C203.644 114.018 203.999 115.042 204 116.11V141.489C203.999 142.557 203.644 143.581 203.012 144.336C202.381 145.091 201.525 145.516 200.632 145.517H141.792C141.605 145.518 141.42 145.564 141.249 145.654C141.079 145.744 140.925 145.876 140.799 146.04L129.664 160.569C129.57 160.692 129.455 160.791 129.328 160.859C129.2 160.927 129.062 160.962 128.922 160.962C128.796 160.962 128.67 160.933 128.553 160.878Z" fill="white"/>
<path d="M128.553 160.878C128.363 160.791 128.199 160.636 128.084 160.435C127.969 160.234 127.908 159.996 127.909 159.752V147.129C127.908 146.702 127.766 146.292 127.514 145.99C127.261 145.688 126.919 145.518 126.561 145.517H124.4C123.507 145.516 122.651 145.091 122.02 144.336C121.388 143.581 121.033 142.557 121.032 141.489V116.11C121.033 115.042 121.388 114.018 122.02 113.263C122.651 112.508 123.507 112.083 124.4 112.082H200.632C201.525 112.083 202.381 112.508 203.012 113.263C203.644 114.018 203.999 115.042 204 116.11V141.489C203.999 142.557 203.644 143.581 203.012 144.336C202.381 145.091 201.525 145.516 200.632 145.517H141.792C141.605 145.518 141.42 145.564 141.249 145.654C141.079 145.744 140.925 145.876 140.799 146.04L129.664 160.569C129.57 160.692 129.455 160.791 129.328 160.859C129.2 160.927 129.062 160.962 128.922 160.962C128.796 160.962 128.67 160.933 128.553 160.878ZM124.4 112.618C123.626 112.619 122.884 112.988 122.337 113.642C121.79 114.297 121.482 115.184 121.481 116.11V141.489C121.482 142.415 121.79 143.302 122.337 143.957C122.884 144.611 123.626 144.98 124.4 144.981H126.561C127.038 144.981 127.494 145.208 127.831 145.611C128.168 146.013 128.357 146.559 128.358 147.129V159.752C128.358 159.887 128.392 160.02 128.456 160.131C128.52 160.243 128.61 160.329 128.716 160.378C128.821 160.427 128.936 160.437 129.047 160.406C129.157 160.376 129.257 160.306 129.333 160.206L140.468 145.677C140.636 145.458 140.841 145.283 141.069 145.163C141.297 145.043 141.543 144.981 141.792 144.981H200.632C201.406 144.98 202.148 144.611 202.695 143.957C203.243 143.302 203.55 142.415 203.551 141.489V116.11C203.55 115.184 203.243 114.297 202.695 113.642C202.148 112.988 201.406 112.619 200.632 112.618H124.4Z" fill="#3F3D56"/>
<path d="M104.792 168.737C101.666 171.132 98.0441 172.437 94.3324 172.508C90.6208 172.578 86.966 171.411 83.7777 169.137C84.3386 167.888 85.0492 166.745 85.8871 165.742C87.1798 164.189 88.7532 163.01 90.4861 162.297C92.2191 161.584 94.0657 161.356 95.8839 161.63C97.7021 161.904 99.4437 162.673 100.975 163.877C102.506 165.082 103.786 166.69 104.716 168.579C104.74 168.63 104.767 168.684 104.792 168.737Z" fill="#FFED26"/>
<path d="M93.4075 155.903C98.8853 155.903 103.326 150.592 103.326 144.04C103.326 137.488 98.8853 132.177 93.4075 132.177C87.9297 132.177 83.489 137.488 83.489 144.04C83.489 150.592 87.9297 155.903 93.4075 155.903Z" fill="#2F2E41"/>
<path d="M100.788 152.407C102.743 148.129 101.429 142.764 97.8513 140.425C94.2739 138.086 89.7886 139.658 87.833 143.937C85.8774 148.216 87.1922 153.581 90.7696 155.92C94.3469 158.259 98.8323 156.686 100.788 152.407Z" fill="#FFB8B8"/>
<path d="M86.5536 142.619C88.2405 144.009 90.2427 144.749 92.2915 144.74C91.5607 145.346 90.7287 145.755 89.8529 145.94C92.5769 146.638 95.3921 146.657 98.1225 145.995C98.7294 145.879 99.315 145.638 99.8537 145.284C100.122 145.105 100.356 144.86 100.54 144.565C100.724 144.271 100.854 143.933 100.922 143.575C101.104 142.335 100.296 141.209 99.4567 140.45C98.1716 139.305 96.6899 138.517 95.1188 138.141C93.5477 137.766 91.9265 137.813 90.3724 138.278C89.3576 138.592 88.341 139.122 87.6819 140.097C87.0228 141.072 86.8276 142.574 87.4555 143.578L86.5536 142.619Z" fill="#2F2E41"/>
<path d="M94.0145 172.779C89.157 172.777 84.4628 170.681 80.7931 166.874C77.1234 163.068 74.7242 157.806 74.0356 152.055C73.347 146.304 74.4152 140.448 77.0442 135.563C79.6732 130.678 83.6867 127.09 88.3486 125.457C93.0105 123.825 98.0082 124.258 102.425 126.676C106.842 129.095 110.381 133.337 112.394 138.624C114.408 143.912 114.759 149.89 113.385 155.463C112.011 161.035 109.003 165.828 104.913 168.963C101.661 171.457 97.8781 172.782 94.0145 172.779ZM94.0145 125.006C90.1085 125.006 86.2901 126.391 83.0422 128.986C79.7943 131.581 77.2628 135.27 75.7678 139.587C74.2729 143.903 73.8817 148.652 74.6436 153.234C75.4055 157.816 77.2864 162.025 80.0484 165.329C82.8104 168.632 86.3294 170.882 90.1604 171.793C93.9914 172.704 97.9623 172.237 101.571 170.448C105.18 168.66 108.264 165.633 110.434 161.748C112.603 157.863 113.761 153.296 113.761 148.624C113.755 142.363 111.673 136.36 107.971 131.932C104.269 127.504 99.2498 125.014 94.0145 125.006Z" fill="#3F3D56"/>
<path d="M130.516 123.009C132.144 123.009 133.463 121.431 133.463 119.484C133.463 117.537 132.144 115.959 130.516 115.959C128.888 115.959 127.569 117.537 127.569 119.484C127.569 121.431 128.888 123.009 130.516 123.009Z" fill="#FFED26"/>
<path d="M198.416 138.988H129.061C128.855 138.989 128.65 138.94 128.459 138.846C128.268 138.752 128.095 138.613 127.949 138.439C127.802 138.264 127.686 138.057 127.607 137.828C127.528 137.6 127.488 137.355 127.488 137.108C127.488 136.861 127.528 136.617 127.607 136.388C127.686 136.16 127.802 135.953 127.949 135.778C128.095 135.604 128.268 135.465 128.459 135.371C128.65 135.277 128.855 135.228 129.061 135.228H198.416C198.833 135.228 199.233 135.427 199.528 135.779C199.823 136.132 199.988 136.61 199.988 137.108C199.988 137.607 199.823 138.085 199.528 138.438C199.233 138.79 198.833 138.988 198.416 138.988Z" fill="#E6E6E6"/>
<path d="M175.822 130.999H129.061C128.855 130.999 128.65 130.95 128.459 130.856C128.268 130.762 128.095 130.623 127.949 130.449C127.802 130.274 127.686 130.067 127.607 129.839C127.528 129.61 127.488 129.366 127.488 129.119C127.488 128.872 127.528 128.627 127.607 128.399C127.686 128.17 127.802 127.963 127.949 127.788C128.095 127.614 128.268 127.475 128.459 127.381C128.65 127.287 128.855 127.238 129.061 127.239H175.822C176.238 127.239 176.638 127.438 176.932 127.79C177.227 128.143 177.392 128.62 177.392 129.119C177.392 129.617 177.227 130.095 176.932 130.447C176.638 130.8 176.238 130.998 175.822 130.999Z" fill="#E6E6E6"/>
<path d="M128.458 163.281C131.495 163.281 133.956 162.954 133.956 162.551C133.956 162.148 131.495 161.821 128.458 161.821C125.421 161.821 122.959 162.148 122.959 162.551C122.959 162.954 125.421 163.281 128.458 163.281Z" fill="#F2F2F2"/>
<path d="M79.3159 77.3974C82.3526 77.3974 84.8144 77.0707 84.8144 76.6675C84.8144 76.2644 82.3526 75.9376 79.3159 75.9376C76.2792 75.9376 73.8174 76.2644 73.8174 76.6675C73.8174 77.0707 76.2792 77.3974 79.3159 77.3974Z" fill="#F2F2F2"/>
</g>
<defs>
<filter id="filter0_d" x="0" y="0" width="208" height="208" filterUnits="userSpaceOnUse" color-interpolation-filters="sRGB">
<feFlood flood-opacity="0" result="BackgroundImageFix"/>
<feColorMatrix in="SourceAlpha" type="matrix" values="0 0 0 0 0 0 0 0 0 0 0 0 0 0 0 0 0 0 127 0" result="hardAlpha"/>
<feOffset dy="4"/>
<feGaussianBlur stdDeviation="2"/>
<feComposite in2="hardAlpha" operator="out"/>
<feColorMatrix type="matrix" values="0 0 0 0 0 0 0 0 0 0 0 0 0 0 0 0 0 0 0.25 0"/>
<feBlend mode="normal" in2="BackgroundImageFix" result="effect1_dropShadow"/>
<feBlend mode="normal" in="SourceGraphic" in2="effect1_dropShadow" result="shape"/>
</filter>
</defs>
</svg>
