<svg width="23" height="26" viewBox="0 0 23 26" fill="none" xmlns="http://www.w3.org/2000/svg">
<path d="M6.57143 9.34375C6.57143 7.77568 7.86117 6.5 9.44643 6.5H16.4286V2.84375C16.4286 2.17064 15.8769 1.625 15.1964 1.625H11.058C10.4889 0.65457 9.42779 0 8.21429 0C7.00078 0 5.93965 0.65457 5.3706 1.625H1.23214C0.551641 1.625 0 2.17064 0 2.84375V19.9062C0 20.5794 0.551641 21.125 1.23214 21.125H6.57143V9.34375ZM8.21429 2.03125C8.89479 2.03125 9.44643 2.57689 9.44643 3.25C9.44643 3.92311 8.89479 4.46875 8.21429 4.46875C7.53378 4.46875 6.98214 3.92311 6.98214 3.25C6.98214 2.57689 7.53378 2.03125 8.21429 2.03125ZM17.6607 14.625H23V24.7812C23 25.4544 22.4484 26 21.7679 26H9.44643C8.76593 26 8.21429 25.4544 8.21429 24.7812V9.34375C8.21429 8.67064 8.76593 8.125 9.44643 8.125H16.4286V13.4062C16.4286 14.0766 16.983 14.625 17.6607 14.625ZM23 12.6923V13H18.0714V8.125H18.3825C18.7093 8.125 19.0227 8.2534 19.2537 8.48194L22.6391 11.8305C22.8702 12.0591 23 12.3691 23 12.6923Z" fill="#093F60"/>
</svg>
