<svg width="85" height="85" viewBox="0 0 85 85" fill="none" xmlns="http://www.w3.org/2000/svg">
<path d="M75.8802 75.5039H7.50393C5.97659 75.5039 4.55992 74.6849 3.79625 73.3346C3.03258 71.9954 3.04365 70.3353 3.81839 68.9961L38.0065 8.37826C38.7702 7.05013 40.1758 6.23112 41.6921 6.23112C43.2084 6.23112 44.614 7.05013 45.3887 8.37826L79.5768 68.9961C80.3405 70.3353 80.3516 71.9954 79.5879 73.3346C78.8242 74.6849 77.4076 75.5039 75.8802 75.5039Z" fill="#FFC107"/>
<path d="M37.4199 62.8314C37.4199 62.2448 37.5195 61.7135 37.7187 61.2155C37.929 60.7175 38.2168 60.2858 38.582 59.9316C38.9473 59.5664 39.401 59.2787 39.9212 59.0794C40.4414 58.8802 41.028 58.7695 41.681 58.7695C42.334 58.7695 42.9206 58.8802 43.4518 59.0794C43.9831 59.2787 44.4368 59.5664 44.8021 59.9316C45.1673 60.2858 45.4551 60.7175 45.6543 61.2155C45.8646 61.7135 45.9642 62.2448 45.9642 62.8314C45.9642 63.4069 45.8646 63.9382 45.6543 64.4251C45.4551 64.9121 45.1673 65.3327 44.8021 65.6979C44.4368 66.0632 43.9831 66.3398 43.4518 66.5501C42.9206 66.7494 42.334 66.849 41.681 66.849C41.0169 66.849 40.4414 66.7494 39.9212 66.5501C39.401 66.3398 38.9473 66.0632 38.582 65.6979C38.2057 65.3327 37.918 64.9121 37.7187 64.4251C37.5195 63.9382 37.4199 63.4069 37.4199 62.8314ZM44.8574 53.8555H38.5046L37.597 27.8796H45.7539L44.8574 53.8555Z" fill="#5D4037"/>
</svg>
