<svg width="20" height="20" viewBox="0 0 20 20" fill="none" xmlns="http://www.w3.org/2000/svg">
<path d="M6.68952 15.5234C6.68952 15.6016 6.59677 15.6641 6.47984 15.6641C6.34677 15.6758 6.25403 15.6133 6.25403 15.5234C6.25403 15.4453 6.34677 15.3828 6.46371 15.3828C6.58468 15.3711 6.68952 15.4336 6.68952 15.5234ZM5.43548 15.3477C5.40726 15.4258 5.4879 15.5156 5.60887 15.5391C5.71371 15.5781 5.83468 15.5391 5.85887 15.4609C5.88306 15.3828 5.80645 15.293 5.68548 15.2578C5.58065 15.2305 5.46371 15.2695 5.43548 15.3477ZM7.21774 15.2812C7.10081 15.3086 7.02016 15.3828 7.03226 15.4727C7.04435 15.5508 7.14919 15.6016 7.27016 15.5742C7.3871 15.5469 7.46774 15.4727 7.45564 15.3945C7.44355 15.3203 7.33468 15.2695 7.21774 15.2812ZM9.87097 0.3125C4.27823 0.3125 0 4.42578 0 9.84375C0 14.1758 2.81452 17.8828 6.83468 19.1875C7.35081 19.2773 7.53226 18.9688 7.53226 18.7148C7.53226 18.4727 7.52016 17.1367 7.52016 16.3164C7.52016 16.3164 4.69758 16.9023 4.10484 15.1523C4.10484 15.1523 3.64516 14.0156 2.98387 13.7227C2.98387 13.7227 2.06048 13.1094 3.04839 13.1211C3.04839 13.1211 4.05242 13.1992 4.60484 14.1289C5.4879 15.6367 6.96774 15.2031 7.54435 14.9453C7.6371 14.3203 7.89919 13.8867 8.18952 13.6289C5.93548 13.3867 3.66129 13.0703 3.66129 9.3125C3.66129 8.23828 3.96774 7.69922 4.6129 7.01172C4.50806 6.75781 4.16532 5.71094 4.71774 4.35938C5.56048 4.10547 7.5 5.41406 7.5 5.41406C8.30645 5.19531 9.17339 5.08203 10.0323 5.08203C10.8911 5.08203 11.7581 5.19531 12.5645 5.41406C12.5645 5.41406 14.504 4.10156 15.3468 4.35938C15.8992 5.71484 15.5565 6.75781 15.4516 7.01172C16.0968 7.70312 16.4919 8.24219 16.4919 9.3125C16.4919 13.082 14.1169 13.3828 11.8629 13.6289C12.2339 13.9375 12.5484 14.5234 12.5484 15.4414C12.5484 16.7578 12.5363 18.3867 12.5363 18.707C12.5363 18.9609 12.7218 19.2695 13.2339 19.1797C17.2661 17.8828 20 14.1758 20 9.84375C20 4.42578 15.4637 0.3125 9.87097 0.3125ZM3.91935 13.7852C3.86694 13.8242 3.87903 13.9141 3.94758 13.9883C4.0121 14.0508 4.10484 14.0781 4.15726 14.0273C4.20968 13.9883 4.19758 13.8984 4.12903 13.8242C4.06452 13.7617 3.97177 13.7344 3.91935 13.7852ZM3.48387 13.4688C3.45565 13.5195 3.49597 13.582 3.57661 13.6211C3.64113 13.6602 3.72177 13.6484 3.75 13.5938C3.77823 13.543 3.7379 13.4805 3.65726 13.4414C3.57661 13.418 3.5121 13.4297 3.48387 13.4688ZM4.79032 14.8594C4.72581 14.9102 4.75 15.0273 4.84274 15.1016C4.93548 15.1914 5.05242 15.2031 5.10484 15.1406C5.15726 15.0898 5.13306 14.9727 5.05242 14.8984C4.96371 14.8086 4.84274 14.7969 4.79032 14.8594ZM4.33065 14.2852C4.26613 14.3242 4.26613 14.4258 4.33065 14.5156C4.39516 14.6055 4.50403 14.6445 4.55645 14.6055C4.62097 14.5547 4.62097 14.4531 4.55645 14.3633C4.5 14.2734 4.39516 14.2344 4.33065 14.2852Z" fill="#093F60"/>
</svg>
