<svg width="228" height="47" viewBox="0 0 228 47" fill="none" xmlns="http://www.w3.org/2000/svg">
<path d="M158.875 0C142.456 0 135.118 10.0591 135.118 23.5C135.118 36.9409 142.602 47 158.875 47C175.148 47 182.661 35.336 182.661 23.5C182.661 11.664 175.293 0 158.875 0ZM158.875 37.5713C149.94 37.5713 146.198 30.0915 146.198 23.5C146.198 16.9085 150.289 9.57195 158.875 9.57195C167.432 9.57195 171.551 16.8799 171.551 23.5C171.551 30.0915 167.809 37.5713 158.875 37.5713ZM41.655 1.54756H33.8519C30.342 1.54756 28.6595 2.43598 26.658 4.55671L11.0809 20.2902V2.92317C11.0809 2.26402 10.6748 1.6622 9.8626 1.6622H1.27634C0.406107 1.63354 0 2.17805 0 2.92317V44.4207C0 44.9652 0.464122 45.3951 0.98626 45.3951H10.0656C10.6168 45.3951 11.0809 44.9652 11.0809 44.4207V26.6811L27.1221 43.6469C28.5145 45.0226 30.6901 45.653 33.3878 45.653H41.2198C43.8015 45.653 42.8443 44.1915 42.8443 44.1915L22.742 23.6433L42.9023 3.00915C42.9313 3.00915 44.2366 1.54756 41.655 1.54756ZM87.8351 1.54756H80.0321C76.4931 1.54756 74.8397 2.43598 72.8092 4.58537L57.2611 20.3189V2.92317C57.2611 2.26402 56.855 1.6622 56.0427 1.6622H47.4565C46.6153 1.6622 46.1802 2.17805 46.1802 2.92317V44.4207C46.1802 44.9652 46.6443 45.3951 47.1664 45.3951H56.2458C56.7969 45.3951 57.2611 44.9652 57.2611 44.4207V26.6811L73.3023 43.6469C74.6947 45.0226 76.8702 45.653 79.5679 45.653H87.4C89.9817 45.653 89.0244 44.1915 89.0244 44.1915L68.9221 23.6146L89.0825 2.98049C89.0825 3.00915 90.4168 1.54756 87.8351 1.54756Z" fill="#09CEF6"/>
<path d="M227.884 44.0768L212.51 23.0988L226.84 3.00915C226.84 3.00915 228.174 1.54756 225.563 1.54756H218.05C214.773 1.54756 213.351 1.57622 211.814 3.81159L204.91 14.3579L197.774 3.66829C196.15 1.71951 194.264 1.54756 190.928 1.54756H184.111C181.501 1.54756 182.777 3.00915 182.777 3.00915L197.484 23.0988L181.82 44.1915C181.82 44.1915 180.863 45.653 183.444 45.653H190.377C192.437 45.653 195.25 45.9683 196.846 43.8762C196.875 43.8476 204.881 32.0116 204.881 32.0116C204.881 32.0116 212.771 43.6469 212.8 43.6756C214.395 45.825 217.064 45.653 219.124 45.653H225.998C228.667 45.6817 227.884 44.0768 227.884 44.0768ZM94.71 1.37561H115.769C125.603 1.37561 129.664 7.16463 129.664 12.6384C129.664 17.1378 126.386 20.8921 122.586 22.6116C127.634 24.589 131.347 27.4262 131.347 34.1037C131.347 41.4689 126.009 45.6244 116.872 45.6244H94.4779C93.6367 45.6244 93.0565 45.0226 93.0565 44.1628V3.00915C93.0855 1.97744 93.7527 1.37561 94.71 1.37561ZM111.215 19.3445C115.566 19.3445 117.887 18.3128 117.887 14.5585V14.3579C117.887 11.4634 115.769 10.0591 110.896 10.0591L104.718 10.1738V19.3732H111.215V19.3445ZM112.057 37.3707C117.22 37.3707 119.134 35.6799 119.134 32.4128V32.2982C119.134 28.7445 116.814 27.0537 112.405 27.0537H104.718V37.1701L112.057 37.3707Z" fill="#09CEF6"/>
</svg>
