<svg width="200" height="200" viewBox="0 0 200 200" fill="none" xmlns="http://www.w3.org/2000/svg">
<g clip-path="url(#clip0)">
<path d="M10.9419 71.0489C14.2083 77.6276 21.1406 80.4517 21.1406 80.4517C21.1406 80.4517 22.7772 72.6096 19.5108 66.0308C16.2445 59.4521 9.31215 56.6279 9.31215 56.6279C9.31215 56.6279 7.67559 64.4701 10.9419 71.0489Z" fill="#2F2E41"/>
<path d="M13.187 68.8845C19.0841 72.7376 21.3552 80.391 21.3552 80.391C21.3552 80.391 14.0653 81.7973 8.16824 77.9441C2.27115 74.091 0 66.4375 0 66.4375C0 66.4375 7.28991 65.0313 13.187 68.8845Z" fill="#FFED26"/>
<path d="M200 178.022C200 184.958 184.821 200 166.097 200C147.373 200 132.194 184.958 132.194 178.022C132.194 171.086 147.373 174.883 166.097 174.883C184.821 174.883 200 171.086 200 178.022Z" fill="#3F3D56"/>
<path opacity="0.1" d="M200 178.022C200 184.958 184.821 200 166.097 200C147.373 200 132.194 184.958 132.194 178.022C132.194 171.086 147.373 174.883 166.097 174.883C184.821 174.883 200 171.086 200 178.022Z" fill="black"/>
<path d="M166.097 190.581C184.821 190.581 200 184.958 200 178.022C200 171.086 184.821 165.464 166.097 165.464C147.373 165.464 132.194 171.086 132.194 178.022C132.194 184.958 147.373 190.581 166.097 190.581Z" fill="#3F3D56"/>
<path d="M127.727 86.1155H19.9737V152.905H127.727V86.1155Z" fill="#F1F1F1"/>
<path d="M178.055 22.1804C183.788 22.1804 188.436 17.4523 188.436 11.6197C188.436 5.78721 183.788 1.05902 178.055 1.05902C172.322 1.05902 167.674 5.78721 167.674 11.6197C167.674 17.4523 172.322 22.1804 178.055 22.1804Z" fill="#2F2E41"/>
<path d="M147.832 77.4101L145.204 81.406C145.204 81.406 132.589 84.2603 137.319 88.5417C142.05 92.823 148.883 84.5457 148.883 84.5457L152.562 79.4081L147.832 77.4101Z" fill="#FFB8B8"/>
<path d="M161.498 32.0276C161.498 32.0276 158.081 32.0276 157.293 37.1652C156.505 42.3029 155.716 59.4284 155.716 59.4284C155.716 59.4284 144.678 75.1267 146.518 77.1247C148.357 79.1227 150.46 82.8332 151.774 82.2623C153.088 81.6915 164.389 64.8514 164.389 64.8514L161.498 32.0276Z" fill="#FFED26"/>
<path opacity="0.1" d="M161.498 32.0276C161.498 32.0276 158.081 32.0276 157.293 37.1652C156.505 42.3029 155.716 59.4284 155.716 59.4284C155.716 59.4284 144.678 75.1267 146.518 77.1247C148.357 79.1227 150.46 82.8332 151.774 82.2623C153.088 81.6915 164.389 64.8514 164.389 64.8514L161.498 32.0276Z" fill="black"/>
<path d="M172.01 17.4709C172.01 17.4709 171.748 28.6024 168.594 29.1733C165.44 29.7441 166.491 33.4547 166.491 33.4547C166.491 33.4547 176.741 40.0194 183.574 33.4547L184.888 30.0296C184.888 30.0296 180.158 26.319 182.26 21.1814L172.01 17.4709Z" fill="#FFB8B8"/>
<path d="M154.402 85.9728C154.402 85.9728 138.896 117.37 144.678 127.074C150.46 136.778 159.133 156.758 160.447 156.758C161.761 156.758 169.12 152.762 168.594 150.193C168.068 147.625 160.184 128.501 158.081 126.789C155.979 125.076 157.03 120.509 157.293 120.224C157.556 119.938 166.229 104.811 166.229 104.811C166.229 104.811 165.966 128.787 167.017 132.497C168.068 136.208 166.754 162.752 168.068 163.894C169.382 165.035 175.427 167.033 176.478 165.321C177.53 163.608 180.683 137.635 178.581 131.641L182.523 90.5396L154.402 85.9728Z" fill="#2F2E41"/>
<path d="M168.594 162.181L162.024 175.311C162.024 175.311 152.562 182.732 159.133 183.874C165.703 185.015 169.645 182.161 169.645 182.161L175.427 177.594V164.465L168.594 162.181Z" fill="#2F2E41"/>
<path d="M159.658 154.76L163.075 163.608C163.075 163.608 164.389 167.319 163.075 168.175C161.761 169.031 158.081 174.169 160.447 174.74C160.923 174.841 161.406 174.893 161.891 174.896C163.861 174.932 165.817 174.535 167.641 173.728C169.466 172.922 171.121 171.723 172.508 170.204L174.639 167.89C174.639 167.89 167.34 149.637 167.442 149.773C167.543 149.908 159.658 154.76 159.658 154.76Z" fill="#2F2E41"/>
<path d="M178.581 24.3211C183.516 24.3211 187.516 19.9763 187.516 14.6167C187.516 9.25706 183.516 4.91223 178.581 4.91223C173.646 4.91223 169.645 9.25706 169.645 14.6167C169.645 19.9763 173.646 24.3211 178.581 24.3211Z" fill="#FFB8B8"/>
<path d="M183.706 28.1743L180.946 31.1713C180.946 31.1713 172.536 34.5964 168.594 31.1713C168.594 31.1713 170.039 27.8889 170.039 28.1743C170.039 28.4598 158.607 30.315 157.556 35.4527C156.505 40.5903 158.344 49.4385 158.344 49.4385C158.344 49.4385 150.986 87.1145 153.876 87.9708C156.767 88.8271 183.837 95.9627 183.574 90.5396C183.311 85.1166 185.677 62.8534 185.677 62.8534L194.875 43.73C194.875 43.73 193.561 37.4506 190.407 35.4527C187.254 33.4547 183.706 28.1743 183.706 28.1743Z" fill="#FFED26"/>
<path d="M172.011 83.9749L168.594 86.2583C168.594 86.2583 155.453 95.9627 162.287 97.6752C169.12 99.3878 173.062 90.825 173.062 90.825L175.69 87.3999L172.011 83.9749Z" fill="#FFB8B8"/>
<path opacity="0.1" d="M191.459 42.0175L193.824 44.5863C193.824 44.5863 195.401 68.5619 192.247 73.4142C189.093 78.2664 174.639 91.3959 173.85 90.5396C173.062 89.6834 168.068 85.402 169.12 84.8312C170.171 84.2603 184.148 68.3994 184.148 68.3994L183.049 46.2988L191.459 42.0175Z" fill="black"/>
<path d="M192.51 41.1611L194.875 43.73C194.875 43.73 196.452 67.7056 193.298 72.5579C190.145 77.4101 175.69 90.5396 174.901 89.6833C174.113 88.8271 169.12 84.5457 170.171 83.9748C171.222 83.404 185.199 67.5431 185.199 67.5431L184.1 45.4425L192.51 41.1611Z" fill="#FFED26"/>
<path d="M174.885 0.832115C174.885 0.832115 171.848 -0.367449 167.706 2.18162L169.915 2.7814C169.915 2.7814 166.601 3.0813 166.187 7.87954H167.706C167.706 7.87954 166.739 12.078 167.706 13.2776L168.327 12.003L170.122 15.9016L170.536 13.9523L171.365 14.2522L171.917 11.1034C171.917 11.1034 173.298 13.3525 174.402 13.5025V11.5532C174.402 11.5532 177.44 15.3018 178.406 15.1519L177.025 13.0527L178.958 13.5025L178.13 12.003L183.1 13.5025L181.996 12.003L185.447 13.2026L187.104 13.9523C187.104 13.9523 189.451 8.10446 186.138 4.05593C182.824 0.00740853 177.992 -0.892255 174.885 0.832115Z" fill="#2F2E41"/>
<path d="M88.0678 122.388C87.8471 122.539 87.6187 122.679 87.3826 122.809C85.4627 123.857 83.2382 124.036 81.1972 123.306C79.1561 122.575 77.4651 120.996 76.4953 118.913L74.747 115.148L75.9205 114.505L77.6687 118.27C78.0701 119.136 78.6244 119.907 79.3002 120.539C79.976 121.172 80.76 121.654 81.6073 121.957C82.4546 122.261 83.3486 122.38 84.2383 122.308C85.1281 122.236 85.996 121.975 86.7926 121.538C87.5892 121.102 88.2989 120.499 88.881 119.765C89.4631 119.031 89.9063 118.179 90.1853 117.259C90.4643 116.338 90.5735 115.367 90.5068 114.401C90.4401 113.435 90.1988 112.492 89.7966 111.627L82.4546 95.8168C82.0529 94.9519 81.4984 94.1814 80.8226 93.5494C80.1468 92.9173 79.363 92.4359 78.5159 92.1328C77.6688 91.8297 76.7751 91.7107 75.8857 91.7828C74.9963 91.8548 74.1287 92.1163 73.3323 92.5525C72.536 92.9887 71.8266 93.5909 71.2446 94.3249C70.6626 95.0588 70.2193 95.9101 69.9402 96.83C69.6611 97.75 69.5516 98.7206 69.6179 99.6866C69.6842 100.652 69.9251 101.595 70.3267 102.46L72.9261 108.057L71.7527 108.7L69.1532 103.102C68.186 101.018 68.0207 98.6012 68.6936 96.3843C69.3666 94.1674 70.8227 92.3315 72.7418 91.2804C74.6609 90.2293 76.8858 90.0491 78.9273 90.7793C80.9688 91.5095 82.6596 93.0903 83.628 95.1743L90.97 110.985C91.8766 112.938 92.0817 115.187 91.5452 117.295C91.0088 119.403 89.7692 121.218 88.0678 122.388Z" fill="#3F3D56"/>
<path d="M88.7779 141.903C88.5603 142.052 88.3345 142.191 88.1006 142.319C86.1807 143.368 83.9562 143.546 81.9151 142.816C79.874 142.086 78.1831 140.506 77.2132 138.423L69.8712 122.612C68.9032 120.528 68.7373 118.111 69.4101 115.894C70.0829 113.676 71.5392 111.84 73.4587 110.788C75.3781 109.737 77.6035 109.557 79.6453 110.288C81.6871 111.018 83.3779 112.6 84.346 114.685L86.2746 118.838L85.1012 119.481L83.1725 115.327C82.7709 114.462 82.2163 113.692 81.5405 113.06C80.8647 112.428 80.0809 111.946 79.2339 111.643C78.3868 111.34 77.493 111.221 76.6036 111.293C75.7142 111.365 74.8466 111.627 74.0503 112.063C73.2539 112.499 72.5445 113.101 71.9625 113.835C71.3805 114.569 70.9373 115.42 70.6582 116.34C70.3791 117.26 70.2696 118.231 70.3359 119.197C70.4022 120.163 70.643 121.105 71.0446 121.97L78.3867 137.781C78.788 138.646 79.3424 139.417 80.0182 140.05C80.694 140.682 81.4779 141.164 82.3252 141.468C83.1725 141.771 84.0665 141.89 84.9563 141.818C85.846 141.746 86.714 141.485 87.5106 141.048C88.3072 140.612 89.0168 140.01 89.5989 139.275C90.1811 138.541 90.6243 137.689 90.9032 136.769C91.1822 135.849 91.2915 134.878 91.2248 133.911C91.1581 132.945 90.9167 132.003 90.5145 131.138L87.9873 125.696L89.1607 125.053L91.688 130.495C92.5928 132.45 92.796 134.7 92.2582 136.809C91.7204 138.917 90.4799 140.733 88.7779 141.903Z" fill="#3F3D56"/>
<path d="M141.13 153.476H19.7109V80.1216H141.13V153.476ZM20.2365 152.905H140.604V80.6925H20.2365V152.905Z" fill="#2F2E41"/>
</g>
<defs>
<clipPath id="clip0">
<rect width="200" height="200" fill="white"/>
</clipPath>
</defs>
</svg>
