<svg width="93" height="93" viewBox="0 0 93 93" fill="none" xmlns="http://www.w3.org/2000/svg">
<path d="M65.8388 36.3645C64.8337 36.3645 64.0103 37.1879 64.0103 38.2051V77.3426H14.1802V27.343H53.1845C54.1896 27.343 55.013 26.5195 55.013 25.5023C55.013 24.4973 54.1896 23.6738 53.1845 23.6738H12.3517C11.3466 23.6738 10.5232 24.4973 10.5232 25.5023V79.1711C10.5232 80.1883 11.3466 80.9996 12.3517 80.9996H65.8388C66.8439 80.9996 67.6673 80.1883 67.6673 79.1711V38.2051C67.6673 37.1879 66.8439 36.3645 65.8388 36.3645Z" fill="#00A0BB"/>
<path d="M81.7626 15.1004L76.2044 9.53008C75.8653 9.19102 75.3931 8.99727 74.9208 8.99727C74.4364 8.99727 73.9642 9.19102 73.6251 9.53008L69.52 13.6473L48.0985 35.1535H20.5376C19.5325 35.1535 18.7212 35.9648 18.7212 36.982C18.7212 37.9871 19.5325 38.8105 20.5376 38.8105H44.4415L38.8228 44.4535C38.8106 44.4656 38.7985 44.4777 38.7864 44.4898C38.7622 44.5141 38.738 44.5504 38.7138 44.5746C38.7017 44.5988 38.6896 44.6109 38.6653 44.6352C38.6532 44.6594 38.629 44.6836 38.6048 44.7199C38.5927 44.7441 38.5806 44.7684 38.5563 44.7926C38.5442 44.8168 38.5321 44.841 38.5079 44.8652C38.4958 44.9016 38.4837 44.9258 38.4716 44.9621C38.4595 44.9863 38.4474 44.9984 38.4353 45.0227L38.1931 45.5797H20.5376C19.5325 45.5797 18.7212 46.4031 18.7212 47.4203C18.7212 48.4254 19.5325 49.2488 20.5376 49.2488H36.631L34.2575 54.7949C34.088 55.1824 34.0638 55.6184 34.1849 56.018H20.5376C19.5325 56.018 18.7212 56.8414 18.7212 57.8586C18.7212 58.8637 19.5325 59.6871 20.5376 59.6871H57.6528C58.6579 59.6871 59.4692 58.8637 59.4692 57.8586C59.4692 56.8414 58.6579 56.018 57.6528 56.018H39.3798L46.3548 53.0148L46.3911 53.0027C46.4032 52.9906 46.4153 52.9906 46.4274 52.9785C46.4638 52.9664 46.5001 52.9422 46.5364 52.9301C46.5606 52.918 46.5849 52.9059 46.597 52.8937C46.6333 52.8695 46.6575 52.8574 46.6938 52.8332C46.7181 52.809 46.7423 52.7969 46.7665 52.7727C46.7907 52.7605 46.8149 52.7363 46.827 52.7242C46.8634 52.7 46.8876 52.6758 46.9239 52.6394C46.936 52.6273 46.9481 52.6273 46.9603 52.6152L50.3146 49.2488H57.6528C58.6579 49.2488 59.4692 48.4254 59.4692 47.4203C59.4692 46.4031 58.6579 45.5797 57.6528 45.5797H53.9595L77.6454 21.809C77.6575 21.809 77.6575 21.809 77.6575 21.809L81.7626 17.6918C82.4649 16.9773 82.4649 15.8148 81.7626 15.1004ZM74.9208 13.4172L77.8876 16.3961L76.3618 17.9219L74.8724 16.4324L73.395 14.943L74.9208 13.4172ZM50.145 38.2777L70.8036 17.5344L73.7825 20.5133L48.2681 46.1125C48.2681 46.1246 48.256 46.1246 48.256 46.1246L45.6646 48.7281L42.6978 45.7492L50.145 38.2777ZM40.7239 48.9461L42.4677 50.702L39.4161 52.0219L40.7239 48.9461Z" fill="#00A0BB"/>
<path d="M57.6528 70.1254C58.6579 70.1254 59.4692 69.302 59.4692 68.2848C59.4692 67.2797 58.6579 66.4563 57.6528 66.4563H20.5376C19.5325 66.4563 18.7212 67.2797 18.7212 68.2848C18.7212 69.302 19.5325 70.1254 20.5376 70.1254H57.6528Z" fill="#00A0BB"/>
</svg>
