<svg width="200" height="200" viewBox="0 0 200 200" fill="none" xmlns="http://www.w3.org/2000/svg">
<g clip-path="url(#clip0)">
<path d="M190.691 38.9049H9.30889C6.84087 38.9009 4.47474 37.4907 2.72959 34.9835C0.984441 32.4763 0.00278753 29.077 0 25.5314V13.3736C0.00278753 9.82791 0.984441 6.42862 2.72959 3.92146C4.47474 1.41429 6.84087 0.00400588 9.30889 0H190.691C193.159 0.0040047 195.525 1.41428 197.27 3.92145C199.016 6.42861 199.997 9.82791 200 13.3736V25.5314C199.997 29.077 199.016 32.4763 197.27 34.9835C195.525 37.4907 193.159 38.9009 190.691 38.9049ZM9.30889 0.810515C6.99045 0.814291 4.76772 2.13911 3.12834 4.49433C1.48896 6.84954 0.5668 10.0428 0.564172 13.3736V25.5314C0.5668 28.8621 1.48896 32.0554 3.12834 34.4106C4.76772 36.7658 6.99045 38.0906 9.30889 38.0944H190.691C193.01 38.0906 195.232 36.7658 196.872 34.4106C198.511 32.0554 199.433 28.8621 199.436 25.5314V13.3736C199.433 10.0428 198.511 6.84954 196.872 4.49433C195.232 2.13911 193.01 0.814291 190.691 0.810515H9.30889Z" fill="#3F3D56"/>
<path d="M143.582 11.7526H23.1311C20.1711 11.7526 17.7715 15.1999 17.7715 19.4525V19.4525C17.7715 23.7051 20.1711 27.1524 23.1311 27.1524H143.582C146.543 27.1524 148.942 23.7051 148.942 19.4525C148.942 15.1999 146.543 11.7526 143.582 11.7526Z" fill="#E6E6E6"/>
<path d="M159.379 79.2859H38.9281C35.968 79.2859 33.5684 82.7333 33.5684 86.9859V86.9859C33.5684 91.2384 35.968 94.6858 38.9281 94.6858H159.379C162.34 94.6858 164.739 91.2384 164.739 86.9859C164.739 82.7333 162.34 79.2859 159.379 79.2859Z" fill="#FFED26"/>
<path d="M159.379 128.25H38.9281C35.968 128.25 33.5684 131.697 33.5684 135.95V135.95C33.5684 140.202 35.968 143.65 38.9281 143.65H159.379C162.34 143.65 164.739 140.202 164.739 135.95C164.739 131.697 162.34 128.25 159.379 128.25Z" fill="#E6E6E6"/>
<path d="M159.379 177.214H38.9281C35.968 177.214 33.5684 180.661 33.5684 184.914V184.914C33.5684 189.166 35.968 192.614 38.9281 192.614H159.379C162.34 192.614 164.739 189.166 164.739 184.914C164.739 180.661 162.34 177.214 159.379 177.214Z" fill="#E6E6E6"/>
<path d="M182.368 27.771C182.239 28.0345 182.043 28.2139 181.823 28.2697C181.602 28.3256 181.375 28.2533 181.192 28.0688L176.587 23.465C176.403 23.2805 176.278 22.9989 176.239 22.6821C176.201 22.3654 176.251 22.0394 176.379 21.7759C176.508 21.5124 176.704 21.333 176.924 21.2772C177.145 21.2213 177.372 21.2936 177.555 21.4781L182.16 26.0819C182.344 26.2664 182.469 26.548 182.508 26.8648C182.546 27.1815 182.496 27.5075 182.368 27.771Z" fill="#FFED26"/>
<path d="M177.139 22.5404C176.459 23.9352 175.507 25.0092 174.402 25.6263C173.298 26.2435 172.09 26.3762 170.933 26.0077C169.776 25.6392 168.721 24.7859 167.901 23.5559C167.082 22.3259 166.534 20.7743 166.328 19.0974C166.123 17.4205 166.268 15.6935 166.745 14.1349C167.222 12.5763 168.011 11.2561 169.01 10.3412C170.01 9.42625 171.176 8.95772 172.361 8.99485C173.546 9.03197 174.696 9.57308 175.667 10.5497C176.968 11.8611 177.853 13.86 178.129 16.1079C178.405 18.3558 178.049 20.6691 177.139 22.5404ZM168.548 13.8987C168.039 14.9448 167.756 16.1847 167.737 17.4615C167.717 18.7383 167.962 19.9946 168.44 21.0717C168.917 22.1488 169.606 22.9982 170.42 23.5125C171.234 24.0269 172.135 24.183 173.011 23.9612C173.886 23.7394 174.696 23.1497 175.338 22.2666C175.98 21.3834 176.426 20.2466 176.618 18.9998C176.811 17.7529 176.741 16.4522 176.419 15.2619C176.097 14.0716 175.536 13.0454 174.808 12.3129C173.831 11.3326 172.624 10.949 171.45 11.2462C170.276 11.5435 169.233 12.4974 168.548 13.8987Z" fill="#FFED26"/>
<path d="M185.473 102.032H14.5275C14.4527 102.032 14.3809 101.989 14.328 101.913C14.2751 101.837 14.2454 101.734 14.2454 101.627C14.2454 101.519 14.2751 101.416 14.328 101.34C14.3809 101.264 14.4527 101.221 14.5275 101.221H185.473C185.547 101.221 185.619 101.264 185.672 101.34C185.725 101.416 185.755 101.519 185.755 101.627C185.755 101.734 185.725 101.837 185.672 101.913C185.619 101.989 185.547 102.032 185.473 102.032Z" fill="#3F3D56"/>
<path d="M185.473 151.016H14.5275C14.4527 151.016 14.3809 150.973 14.328 150.897C14.2751 150.821 14.2454 150.718 14.2454 150.611C14.2454 150.503 14.2751 150.4 14.328 150.324C14.3809 150.248 14.4527 150.206 14.5275 150.206H185.473C185.547 150.206 185.619 150.248 185.672 150.324C185.725 150.4 185.755 150.503 185.755 150.611C185.755 150.718 185.725 150.821 185.672 150.897C185.619 150.973 185.547 151.016 185.473 151.016Z" fill="#3F3D56"/>
<path d="M185.473 200H14.5275C14.4527 200 14.3809 199.957 14.328 199.881C14.2751 199.805 14.2454 199.702 14.2454 199.595C14.2454 199.487 14.2751 199.384 14.328 199.308C14.3809 199.232 14.4527 199.189 14.5275 199.189H185.473C185.547 199.189 185.619 199.232 185.672 199.308C185.725 199.384 185.755 199.487 185.755 199.595C185.755 199.702 185.725 199.805 185.672 199.881C185.619 199.957 185.547 200 185.473 200Z" fill="#3F3D56"/>
</g>
<defs>
<clipPath id="clip0">
<rect width="200" height="200" fill="white"/>
</clipPath>
</defs>
</svg>
